<svg xmlns="http://www.w3.org/2000/svg" width="31.402" height="31.403" viewBox="0 0 31.402 31.403">
  <g id="logo" transform="translate(1.139 1.139)">
    <g id="Grupo_23" data-name="Grupo 23">
      <g id="Grupo_21" data-name="Grupo 21">
        <path id="Caminho_39" data-name="Caminho 39" d="M177.839,708a14.563,14.563,0,1,1-14.562,14.563" transform="translate(-163.277 -708)" fill="none" stroke="#c3e7f4" stroke-linecap="round" stroke-linejoin="round" stroke-width="2.278"/>
        <path id="Caminho_40" data-name="Caminho 40" d="M178.4,734.282a11.159,11.159,0,1,1,11.16-11.16" transform="translate(-163.837 -708.56)" fill="none" stroke="#c3e7f4" stroke-linecap="round" stroke-linejoin="round" stroke-width="2.278"/>
      </g>
      <g id="Grupo_22" data-name="Grupo 22">
        <path id="Caminho_41" data-name="Caminho 41" d="M177.839,737.125A14.563,14.563,0,1,1,192.4,722.563" transform="translate(-163.277 -708)" fill="none" stroke="#27bed5" stroke-linecap="round" stroke-linejoin="round" stroke-width="2.278"/>
        <path id="Caminho_42" data-name="Caminho 42" d="M178.4,711.964a11.159,11.159,0,1,1-11.159,11.159" transform="translate(-163.837 -708.56)" fill="none" stroke="#27bed5" stroke-linecap="round" stroke-linejoin="round" stroke-width="2.278"/>
      </g>
    </g>
    <path id="Caminho_43" data-name="Caminho 43" d="M173.463,716.555H184.72v1.3l-7.6,10.735h7.6V731.2H173.274v-1.59l7.429-10.463h-7.24Z" transform="translate(-164.69 -709.209)" fill="#27bed5"/>
  </g>
</svg>
